<svg xmlns="http://www.w3.org/2000/svg" width="152" height="152" viewBox="0 0 152 152">
  <rect width="152" height="152" fill="#D32F2F"/>
  <path d="M76 24c-5 12-15 28-15 42 0 18 9 32 15 42 6-10 15-24 15-42 0-14-10-30-15-42zm-26 44c-3 8-8 18-8 28 0 14 6 24 12 30 4-6 9-16 9-30 0-10-5-20-7-28h-6zm52 0c-2 8-8 18-8 28 0 14 5 24 9 30 6-6 12-16 12-30 0-10-5-20-7-28h-6z" fill="#FFFFFF"/>
  <text x="76" y="134" text-anchor="middle" fill="#FFFFFF" font-family="Arial, sans-serif" font-size="17" font-weight="bold">PUKE</text>
</svg>
