<svg xmlns="http://www.w3.org/2000/svg" width="384" height="384" viewBox="0 0 384 384">
  <rect width="384" height="384" fill="#D32F2F"/>
  <path d="M192 60c-12 32-40 72-40 108 0 44 24 84 40 108 16-24 40-64 40-108 0-36-28-76-40-108zm-64 112c-8 20-20 44-20 72 0 32 16 60 32 76 10-16 22-40 22-76 0-28-14-52-18-72h-16zm128 0c-4 20-20 44-20 72 0 36 12 60 22 76 16-16 32-44 32-76 0-28-14-52-18-72h-16z" fill="#FFFFFF"/>
  <text x="192" y="340" text-anchor="middle" fill="#FFFFFF" font-family="Arial, sans-serif" font-size="44" font-weight="bold">PUKE</text>
</svg>
