<svg xmlns="http://www.w3.org/2000/svg" width="96" height="96" viewBox="0 0 96 96">
  <rect width="96" height="96" fill="#D32F2F"/>
  <path d="M48 16c-3 8-8 16-8 24 0 10 5 18 8 24 3-6 8-14 8-24 0-8-5-16-8-24zm-14 26c-2 5-4 10-4 16 0 7 4 13 7 17 2-4 5-9 5-17 0-6-3-11-4-16h-4zm28 0c-1 5-4 10-4 16 0 8 3 13 5 17 3-4 7-10 7-17 0-6-3-11-4-16h-4z" fill="#FFFFFF"/>
  <text x="48" y="84" text-anchor="middle" fill="#FFFFFF" font-family="Arial, sans-serif" font-size="10" font-weight="bold">PUKE</text>
</svg>
