<svg xmlns="http://www.w3.org/2000/svg" width="192" height="192" viewBox="0 0 192 192">
  <rect width="192" height="192" fill="#D32F2F"/>
  <path d="M96 30c-6 16-20 36-20 54 0 22 12 42 20 54 8-12 20-32 20-54 0-18-14-38-20-54zm-32 56c-4 10-10 22-10 36 0 16 8 30 16 38 5-8 11-20 11-38 0-14-7-26-9-36h-8zm64 0c-2 10-10 22-10 36 0 18 6 30 11 38 8-8 16-22 16-38 0-14-7-26-9-36h-8z" fill="#FFFFFF"/>
  <text x="96" y="170" text-anchor="middle" fill="#FFFFFF" font-family="Arial, sans-serif" font-size="22" font-weight="bold">PUKE</text>
</svg>
