<svg xmlns="http://www.w3.org/2000/svg" width="512" height="512" viewBox="0 0 512 512">
  <rect width="512" height="512" fill="#D32F2F"/>
  <path d="M256 80c-16 42-54 96-54 144 0 58 32 112 54 144 22-32 54-86 54-144 0-48-38-102-54-144zm-86 150c-10 26-26 58-26 96 0 42 22 80 42 102 14-22 30-54 30-102 0-38-18-70-24-96h-22zm172 0c-6 26-26 58-26 96 0 48 16 80 30 102 20-22 42-60 42-102 0-38-18-70-24-96h-22z" fill="#FFFFFF"/>
  <text x="256" y="456" text-anchor="middle" fill="#FFFFFF" font-family="Arial, sans-serif" font-size="58" font-weight="bold">PUKE</text>
</svg>
