<svg xmlns="http://www.w3.org/2000/svg" width="144" height="144" viewBox="0 0 144 144">
  <rect width="144" height="144" fill="#D32F2F"/>
  <path d="M72 22c-4 12-14 26-14 40 0 16 8 30 14 40 6-10 14-24 14-40 0-14-10-28-14-40zm-24 42c-3 8-7 16-7 26 0 12 6 22 12 28 4-6 8-14 8-28 0-10-5-18-7-26h-6zm48 0c-2 8-7 16-7 26 0 14 4 22 8 28 6-6 12-16 12-28 0-10-5-18-7-26h-6z" fill="#FFFFFF"/>
  <text x="72" y="128" text-anchor="middle" fill="#FFFFFF" font-family="Arial, sans-serif" font-size="16" font-weight="bold">PUKE</text>
</svg>
