<svg xmlns="http://www.w3.org/2000/svg" width="128" height="128" viewBox="0 0 128 128">
  <rect width="128" height="128" fill="#D32F2F"/>
  <path d="M64 20c-4 10-12 22-12 34 0 14 7 26 12 34 5-8 12-20 12-34 0-12-8-24-12-34zm-20 36c-2 6-6 14-6 22 0 10 5 18 10 24 3-6 7-12 7-24 0-8-4-14-6-22h-5zm40 0c-2 8-6 14-6 22 0 12 4 18 7 24 5-6 10-14 10-24 0-8-4-16-6-22h-5z" fill="#FFFFFF"/>
  <text x="64" y="112" text-anchor="middle" fill="#FFFFFF" font-family="Arial, sans-serif" font-size="14" font-weight="bold">PUKE</text>
</svg>
